<?xml version="1.0" encoding="utf-8"?>
<!-- Generator: Adobe Illustrator 25.4.1, SVG Export Plug-In . SVG Version: 6.00 Build 0)  -->
<svg version="1.1" id="Capa_1" xmlns="http://www.w3.org/2000/svg" xmlns:xlink="http://www.w3.org/1999/xlink" x="0px" y="0px"
	 viewBox="0 0 1176 294.3" style="enable-background:new 0 0 1176 294.3;" xml:space="preserve">
<style type="text/css">
	.st0{fill:#1E1C21;}
	.st1{fill:#D1B3D2;}
	.st2{fill:#6AAEAF;}
	.st3{fill:#C0A8C1;}
	.st4{fill:#BEA9BF;}
	.st5{fill:#C4ACC5;}
	.st6{fill:#B99FBA;}
</style>
<g>
	<path class="st0" d="M1040.5,112.5c6.8-0.5,12-0.8,17.3-1.3c2.3-0.2,4.8-0.6,6.7-1.7c7-3.9,13.6-5.3,20.4,1.9
		c1.2-9.1,2.8-17,6.5-24.3c6.3-12.2,16.2-19.8,29.6-23.3c3.4-0.9,3.6,0.4,3.7,3c0.4,14.7-3.6,27.9-13.4,39.1
		c-4.2,4.8-8,9.8-9.1,16.3c-0.3,1.6-1.4,3.5,0,4.7c1.3,1.1,2.8-0.4,4.1-0.9c11.4-4.8,22.9-8.9,35.3-10.2c10.3-1.1,20.2,0.2,29.9,3.7
		c5,1.8,5.6,3.2,2.6,7.6c-8.2,12.4-20.6,19-34,24c-9.6,3.6-19.6,4.8-29.9,3.5c0.1,3.7,2.9,4,5.3,4.4c18.9,3.6,29.9,15.3,34.8,33.8
		c-2.8,0.6-5-0.9-7.1-1.9c-12.4-5.9-23-14-30.8-25.4c-1.9-2.8-4.2-4.1-7.5-3.8c-1.2,0.1-2.3-0.1-3.5,0c-16.7,2.1-23.5-6.2-29-17.5
		c-2.4-4.8-4.2-9.9-4.8-15.1c-0.8-7.2-5.2-10.7-11.4-13C1051.6,114.4,1046.7,114.2,1040.5,112.5z"/>
	<path class="st0" d="M212.5,270.3c0-6.5,0.1-13,0-19.5c0-2.1,0.5-2.9,2.7-2.9c6.8,0.1,13.6,0.1,20.5,0c1.6,0,3-0.1,2.9,2.3
		c-0.1,2.4-1.6,2.1-3.1,2.1c-4.8,0-9.7,0.2-14.5-0.1c-3.2-0.2-3.9,1-3.9,4c-0.1,10.1-0.2,10.1,10.1,10.1c2.7,0,5.3,0.1,8,0
		c2-0.1,3.1,0.4,3.1,2.7c0,2.4-1.4,2.2-2.9,2.2c-4.8,0-9.7,0.1-14.5-0.1c-2.6-0.1-3.7,0.5-3.7,3.4c-0.3,14.1-0.4,14.1,13.7,14.1
		c1.5,0,3,0,4.5,0c1.7-0.1,2.9,0.2,2.9,2.3c0.1,2.2-1,2.4-2.8,2.4c-6.7-0.1-13.3-0.1-20,0c-2.4,0.1-3.1-0.8-3-3.1
		C212.6,283.6,212.5,276.9,212.5,270.3z"/>
	<path class="st0" d="M510.1,264.2c2.2-1.6,3.9-3.4,6.3-4.4c8.3-3.4,16.1,0.6,17.6,9.4c1.3,7.2,0.2,14.6,0.5,21.9
		c0.1,1.9-0.9,2.2-2.5,2.2c-1.7,0-2.3-0.7-2.3-2.4c0.1-5.8,0.1-11.6,0-17.5c-0.1-6.5-2.3-9.7-7-10.4c-5.4-0.8-10.6,2.6-12.2,8.1
		c-1.8,6-0.5,12.2-1,18.3c-0.1,1.5,1.2,3.9-2.1,3.8c-3.1,0-2.3-2.2-2.3-3.8c-0.1-8.5-0.1-17,0-25.4c0-1.7-1.3-4.3,2.2-4.5
		C511,259.4,509,262.4,510.1,264.2z"/>
	<path class="st0" d="M862.6,271.1c0-3,0-6,0-9c0-1.5,0.1-2.6,2.1-2.5c1.7,0.1,2.9,0.3,2.8,2.4c-0.3,7.1,0.7,14.3-0.8,21.4
		c-1.4,6.9-6.4,10.7-14,10.7c-7.7,0-12.7-3.8-14.1-10.6c-1.5-7.1-0.5-14.3-0.8-21.4c-0.1-1.6,0.4-2.5,2.2-2.5c2-0.1,2.6,0.8,2.6,2.7
		c-0.1,5.3-0.1,10.6,0,16c0.2,7.7,3.6,11.4,10.2,11.4c6.5,0,9.9-3.9,9.9-11.5C862.6,275.8,862.6,273.4,862.6,271.1z"/>
	<path class="st0" d="M292.7,271.5c0,3-0.2,6,0,9c0.4,5.9,4.4,9.3,10.3,9.1c5.6-0.2,9.4-3.7,9.6-9.4c0.2-5.8,0.2-11.6,0.2-17.5
		c0-1.8,0.1-3.3,2.6-3.2c2.3,0.1,2.2,1.5,2.2,3.1c-0.3,7,0.7,14-0.8,20.9c-1.5,6.9-6.4,10.6-14.2,10.6c-7.6,0-12.6-3.9-14-10.8
		c-1.4-7.1-0.5-14.3-0.8-21.4c-0.1-1.8,0.8-2.3,2.4-2.3c1.7,0,2.4,0.7,2.3,2.4c-0.1,3.2,0,6.3,0,9.5
		C292.6,271.5,292.6,271.5,292.7,271.5z"/>
	<path class="st0" d="M343.7,294.1c-8.5,0-15.9-5.2-17.9-12.4c-2.1-7.8,1.2-16.4,7.9-20.4c7-4.1,17.9-3.2,23.3,2.1
		c0.9,0.9,3.3,1.8,1.5,3.8c-1.8,2-3.1,0.9-4.8-0.6c-6-5.2-15.1-4.8-20.3,0.7c-4.8,5.1-4.8,12.9,0,18.1c5.2,5.7,14,6.1,20.2,0.8
		c1.7-1.5,3.2-2.6,4.8-0.5c1.8,2.2-0.8,3.1-1.9,4.1C352.9,293,348.5,294.2,343.7,294.1z"/>
	<path class="st0" d="M427.6,294.1c-8.7,0-15.8-4.8-18-12.3c-2.2-7.5,0.6-15.5,6.8-19.8c6.7-4.6,17.4-4.5,23.3,0.6
		c1.3,1.1,4,2.2,2.4,4.5c-1.9,2.7-3.5,0.4-5.2-0.9c-5.7-4.6-14-4.3-19.2,0.5c-4.8,4.4-5.6,11.3-2.1,16.8c4.5,7.1,14.7,8.6,21.3,2.9
		c1.8-1.5,3.4-3.1,5.2-0.7c1.5,2.1-1,3.1-2.1,4.1C437.1,292.7,432.4,294.1,427.6,294.1z"/>
	<path class="st0" d="M921.6,270c0,6.8,0,13.6,0,20.4c0,1.5,0.3,3-2.1,2.9c-2.2,0-2.8-0.8-2.8-2.9c0.1-13.6,0.1-27.3,0-40.9
		c0-2.1,0.6-3,2.8-3c2.4,0,2.1,1.5,2.1,3C921.6,256.4,921.6,263.2,921.6,270z"/>
	<path class="st0" d="M765.4,270.6c0,6.5,0,13,0,19.5c0,1.7,0.2,3.3-2.4,3.3c-2.7,0-2.4-1.7-2.4-3.3c0-13.5,0-26.9,0-40.4
		c0-1.6-0.1-3,2.2-3.1c2.4-0.1,2.6,1.2,2.6,3.1C765.4,256.7,765.4,263.7,765.4,270.6z"/>
	<path class="st0" d="M644.3,263.3c3-2.8,5.5-5.1,9.2-4.5c1,0.2,2.8-0.2,2.7,1.4c-0.1,1.3-0.8,2.8-2.6,3.2
		c-7.1,1.7-8.8,3.6-9.1,10.9c-0.2,5.3-0.3,10.6-0.3,15.9c0,1.9-0.2,3.1-2.6,3.1c-2.6,0-1.9-1.8-1.9-3.1c0-8.8-0.1-17.6,0-26.4
		c0-1.4-1.2-3.5,1.2-4.2C643.4,259,644.5,260.4,644.3,263.3z"/>
	<path class="st0" d="M450.6,276.2c0-4.6,0-9.3,0-13.9c0-1.3-0.3-2.7,1.8-2.7c1.8,0,2.8,0.5,2.8,2.5c-0.1,9.6-0.1,19.2,0,28.9
		c0,2.1-1,2.4-2.8,2.4c-2.2,0-1.8-1.4-1.8-2.7C450.6,285.8,450.6,281,450.6,276.2z"/>
	<path class="st0" d="M422.7,96.9c0.4-5.2,5.3-10.3,8.7-10.2c2.7,0.1,3.1,2,3,4.2c-0.4,5.7-3.9,10.1-7.9,9.7
		C423.8,100.2,422.6,98.5,422.7,96.9z"/>
	<path class="st0" d="M309.5,90.3c-0.6,6.4-4.1,10.7-8,10.2c-2.8-0.4-4-2.1-3.7-4.9c0.4-4.1,5.2-9.2,8.7-9
		C309.2,86.9,309.5,88.8,309.5,90.3z"/>
	<path class="st0" d="M475.9,253.2c3.1-4.2,4-11.3,12.8-8.7C484.1,247.6,482.5,253.7,475.9,253.2z"/>
	<path class="st0" d="M452.3,246c2.9,0,4,1.5,4,3.4c0,2.1-1.5,3.7-3.8,3.6c-2-0.1-3.3-1.5-3.2-3.6
		C449.5,247.3,450.8,246.1,452.3,246z"/>
	<path class="st0" d="M571.9,113.9c-2.1-1.5-3.7,0.1-5.1,1.6c-7,7.8-15.4,13.6-24.9,18c-4.4,2.1-8.9,3.8-13.8,3.8
		c-6.9,0-10.4-3.4-10.7-10.3c-0.2-4.9,1.2-9.5,2.4-14.2c1.2-4.4-1.1-6.7-5.5-5.9c-2.4,0.4-4.2,1.9-5.9,3.6c-2.9,3-5.7,6.1-8.6,9
		c-4.5,4.4-8.5,9.3-14.7,12.6c-1-2.9-0.6-5.1,0.1-7.4c2.5-7.8,6.9-14.4,13.2-19.5c9.8-8,16.4-7.2,24.1,2.7c1.3,1.7,2.9,3.1,5.1,1.7
		c2.3-1.4,1.5-3.4,0.5-5.3c-2.7-4.9-7.2-7.3-12.5-8.2c-15.7-2.6-28.3,3-37.4,15.6c-8,10.9-18.6,17.9-30.6,23.2
		c-3.5,1.5-7.2,2.5-11.1,2.4c-6.4-0.2-9.8-3.4-10.1-9.8c-0.3-4.9,0.7-9.6,2.2-14.2c0.6-2,0.9-4-0.8-5.5c-1.7-1.5-3.8-1.2-5.7-0.6
		c-2.1,0.7-3.8,1.9-4.8,4.1c-6.4,14.1-14.9,27-23.6,39.7c-8.2,11.9-16.7,23.8-28.9,32.1c-9.5,6.6-16.4,3.2-17.3-8.2
		c-1.2-14.9,3.4-28.9,7.4-43c3.4-11.9,8.7-22.8,16.7-32.5c7.4-9,13.8-18.8,19.8-28.8c6.6-11,13.1-22,15.7-34.8
		c1-4.7,1.6-9.4-3.1-12.7c-3.4-2.3-9-0.7-13.4,3.7c-2.1,2.1-4,4.4-5.7,6.9c-2.4,3.6-4.7,7.2-6.8,11c-10,18.5-17.8,38-23.2,58.2
		c-3.2,12-9.9,19.9-20.1,25.7c-3.7,2.1-7.6,4.2-11.5,5.9c-3.8,1.7-7.8,2.8-12.1,2.6c-5.9-0.3-9.2-3.4-9.6-9.3
		c-0.4-5.1,0.7-9.9,2.2-14.7c0.6-2,0.9-4-0.9-5.5c-1.7-1.5-3.7-1.2-5.7-0.6c-2.7,0.8-4.6,2.7-5.4,5.4c-0.7,2.5-2,4.5-4,6.2
		c-7.5,6.4-15.4,12.2-24.2,16.7c-5.2,2.6-10.6,4.9-16.6,4.8c-6.9-0.2-11.7-5.3-11-12c1.1-10.3,5.2-19.2,13.1-26.1
		c6.1-5.3,7.8-4.8,10.6,2.6c0.7,1.9,2,3,4.2,2.6c2.6-0.6,2.2-2.5,1.9-4.3c-1-5.8-5-8.9-11.1-8.2c-10.6,1.2-18.1,7.4-23.8,15.7
		c-9.4,13.8-22.9,21.8-37.9,28c-5.9,2.4-12.2,3.8-17.3-1.4c-4.8-5-2.9-11.1-1.4-17c0.8-3.1,2.5-4.1,5.5-4.4
		c5.4-0.4,10.5-1.7,14.6-5.7c3.8-3.7,3-8.7-1.8-11c-3.8-1.8-7.7-1.6-11.6,0c-6.8,2.8-11.4,7.9-15.1,14
		c-17.6,28.8-40.1,53.4-65.4,75.5c-12.5,10.9-26,20.2-42.1,25c-21.8,6.6-37.3-1.5-44.3-23.1c-4.5-13.8-4.6-28-2.1-42
		C20.2,102.2,40.5,61.6,70.9,26c7.5-8.8,16.6-15.8,28.4-18.3c15.4-3.3,27.1,6.2,26.4,21.9c-0.6,13.2-6,24.3-16.2,33
		c-1.1,1-2.3,1.9-3.1,3.1c-1.6,2.2-1.8,4.8,0,6.9c2,2.2,4.5,1.8,6.9,0.5c3.7-2,5.9-5.3,7.7-9c5.6-11.9,8.9-24.4,9.1-37.5
		c0.3-18.5-10.6-28.6-27.9-26.4c-4,0.5-7.7,1.8-11.4,3.5c-9.9,4.5-18.1,11.3-25,19.5c-24.3,28.7-42,61.3-55.1,96.5
		c-7.5,20.1-12.5,40.6-10.1,62.4c2.6,23.6,19.4,39.1,43.1,39c18-0.1,33.5-7.3,47.9-17.6c19.6-13.9,35.9-31.2,51.1-49.6
		c5.9-7.1,11.6-14.4,17.6-22c1.5,8.3,6.3,12.3,13.9,13.4c11.8,1.6,22.3-2.4,32.5-7.5c5.9-3,11.2-6.9,16.7-10.8
		c0.7,14.5,7.9,20.3,22,18.6c10.1-1.2,19.3-4.8,28-9.8c5.8-3.4,11.2-7.5,16.7-11.9c2.2,13.5,8.1,18.6,21,18.3
		c11.4-0.2,21.1-5.2,30.4-11.3c1.5-1,2.6-3,5.3-2.6c-0.3,1.5-0.5,2.8-0.8,4c-3,12.6-5.9,25.3-5.4,38.4c0.3,6.8,1.2,13.6,7.9,17.3
		c6.7,3.7,12.9,0.6,18.7-3.1c1.1-0.7,2.2-1.5,3.3-2.3c9.2-7,16.9-15.5,24.1-24.5c7.7-9.8,13.9-20.6,20.5-31.4
		c5.6,13.6,10.3,16.5,24.1,15.3c3.7-0.3,7.2-1.4,10.6-2.6c7.9-2.6,14.7-7.1,21.6-12.3c0,1.5,0,2.3,0,3.2c-0.1,3.9,0.2,7.9,4.1,10
		c4.1,2.2,8,1.1,11.8-1.2c4.3-2.7,7.8-6.2,11-10.1c3-3.5,5.8-7.2,9.4-11.5c-3.2,17.9,3.2,25.6,20.4,24.5c18.2-1.2,32-11,43.6-24.4
		C572.8,116.6,573.5,115,571.9,113.9z M398.2,39.3c-5.7,19.3-16.8,35.5-28.2,51.6C376.8,72.3,383.3,53.5,398.2,39.3z"/>
	<path class="st0" d="M178.5,111.5c1.4-3.5,3.1-5.9,5.2-8c0.7-0.7,1.6-1.5,2.5-0.8c0.9,0.6,0.8,1.8,0.3,2.7
		C185.1,108.6,182.9,110.8,178.5,111.5z"/>
	<path class="st0" d="M1034,115.7c-1-2.1-2.7-1.5-4.3-1c-1.2,0.5-2.5,1-3.6,1.7c-10,5.9-20.1,11.7-30.1,17.7
		c-7.1,4.3-7,4.4-13.5-0.9c-4-3.3-8-6.6-10.5-11.2c-2.8-5-2.1-12,1.7-15.3c4.5-3.8,8.6-2,12.5,1.2c0.8,0.7,2.1,1,3.2,1.3
		c2,0.4,3.7-0.2,4.7-2c1.1-1.9,0.9-3.8-0.5-5.5c-1.2-1.5-2.8-2.2-4.6-2.7c-10.3-2.6-22,3.4-26.4,13.9c-0.8,1.9-1.4,3.6-3.1,5
		c-8.2,7.1-16.8,13.6-26.7,18.2c-4.7,2.2-9.5,4.1-14.8,4.1c-6.3,0-9.9-3.1-11.1-9.3c-0.7-3.8,0.5-7.2,1.4-10.8
		c0.7-2.9,2-4.4,5.3-4.6c5.2-0.3,10.2-1.7,14.3-5.2c4.7-4,3.5-10.2-2.4-12.1c-4.7-1.5-9.2-0.5-13.4,2c-4.6,2.8-8.2,6.7-11.3,11.2
		c-8.1,11.9-18,22.2-29,31.4c-5.1,4.3-10.6,8.2-17.5,9.1c-7.8,1.1-10.8-2.9-7.7-10.1c1.7-4,4.1-7.6,5.7-11.6
		c2.6-6.6,0.9-10.3-5.6-13.2c-2.6-1.2-5.1-2.4-7.6-3.7c-2.3-1.2-3-2.6-0.4-4.3c1.7-1.1,2.6-2.8,1.5-4.7c-1.1-1.9-3.1-2.4-5.2-2.1
		c-4.6,0.7-8.2,5.3-8,10.6c0.1,1.5,0.5,2.8-0.7,4.2c-9.5,10.7-18.7,21.8-30.7,29.8c-3.9,2.6-8,4.8-12.8,5.2c-7,0.5-9.7-3.1-7.1-9.5
		c1.7-4.1,4-8,5.7-12.1c2.7-6.6,1.1-10.4-5.2-13.3c-2.7-1.3-5.4-2.5-8.1-3.9c-2.1-1.1-2.6-2.5-0.3-4c1.8-1.2,3.1-2.8,1.5-5
		c-1.4-2-3.5-2.4-5.8-1.7c-4.4,1.4-7.2,4.6-7.1,9.2c0.1,3.5-1.2,4.4-4.3,4.8c-8.4,1.3-16.9,1.8-25.4,1.3c-2.3-0.1-4-0.5-4.9-3.2
		c-1.2-3.6-4-4.6-7.6-2.9c-2.3,3.9-1.3,6.9,2.7,9c1.2,0.6,2.7,0.9,2.2,2.7c-1.7,6-3.5,12.1-8.4,16.5c-2.5,2.3-5.2,1.7-5.2-1.7
		c-0.1-9.8,1.3-19.4,8.1-27.2c3.7-4.8,6.1-5.4,12.3-2.9c2,0.8,3.8,1.2,5.6-0.3c0.8-0.7,1.2-1.7,0.9-2.7c-0.8-2.1-2.8-2-4.6-2.3
		c-19.6-3-36.2,14.9-35.1,34.1c0.3,5,1.7,9.7,7.2,11.4c5.6,1.7,10.5,0.2,14.7-3.8c5.4-5,7.7-11.6,8.7-18.6c0.4-3,1.4-3.3,4-3.2
		c8.1,0.5,16.4,1,24.4-0.9c6.8-1.6,13.1-0.9,19.4,1.7c-3.7,6.2-6.4,12.7-6,20.2c0.4,7.6,5.2,12.7,12.8,13.3c6,0.5,11.5-1.1,16.7-4
		c11.7-6.5,21.1-15.6,29.7-25.7c4-4.6,7.3-9.4,14.2-4.9c0.8,0.5,2.2,0.3,3.6,0.5c-3.5,5.5-5.7,11.2-6.4,17.4
		c-1,9.4,4.8,16.2,14.2,16.6c9.9,0.4,17.4-4.7,24.9-10.1c6.9-5.1,12.8-11.4,19.1-17.7c1.3,10.7,5.1,14.6,15,16.1
		c4.7,0.7,9.3-0.1,13.8-1.1c13.6-3.1,25.2-10.2,35.7-19c1.9-1.6,2.8-2.6,4.5,0.5c2.3,4.3,6.6,6.9,10.8,9.4c3.2,1.9,6.8,3.5,9.6,6.6
		c-1.6,1.1-3,2.2-4.5,3.2c-12,8.7-23.9,17.6-32.9,29.7c-3.2,4.3-5.7,9-6.2,14.5c-0.6,6.7,2.7,11.1,9.2,12.8
		c5.9,1.6,11.3,0.2,16.3-2.6c13.1-7.2,22.8-17.8,28.7-31.5c3.2-7.4,4.4-15.1,0-22.6c-1.6-2.7,0.4-3.2,1.8-4.1
		c9-5.7,18-11.3,27.1-16.9c3-1.8,6-3.6,9-5.4C1033.4,118.5,1034.8,117.6,1034,115.7z M917.7,103.5c0.6-0.7,1.6-1.5,2.5-0.6
		c0.4,0.5,0.6,1.6,0.3,2.3c-1.3,3.5-3.7,5.5-7.9,6.2C913.9,108.1,915.7,105.7,917.7,103.5z M986.3,157.2
		c-6.6,13.9-15.6,25.9-28.2,35c-3.2,2.3-7,5.3-10.7,1.7c-3.6-3.4-1.2-7.5,0.7-11c4-7.1,10-12.4,16-17.7c7.2-6.3,14.9-12,23.1-17.6
		C988.6,151.4,987.6,154.5,986.3,157.2z"/>
	<path class="st0" d="M798.3,24.3c-2.8-4.3-6.5-7.6-11-9.9c-7.5-3.9-15.6-5.5-24-6.2C749,7.1,734.7,7.5,720.5,10
		c-2.2,0.4-4.4,1.1-4.7-2.8c-0.3-3.8-3.5-4.6-6.8-3.7c-3.1,0.8-5.3,3.1-6.3,6c-1.2,3.4-3.4,4.4-6.6,4.9c-7.2,1.3-14.3,3.3-21.5,4.4
		c-18.6,2.8-37.5,8.3-54.6-5.3c-2.5-2-6-1-7.8,2c-1.8,3-0.7,5.8,2.2,7.7c2.8,1.9,6,2.9,9.3,3.4c10.8,1.5,18,7.8,23.4,16.8
		c3.1,5.2,5.7,10.5,7.5,16.2c8.6,27.4,5.8,55,0.2,82.4c-4,19.5-9.3,38.8-10,58.9c0,2.3-0.2,4.7,0,7c0.6,5,1.5,9.9,5.4,13.6
		c2.2,2.1,4.8,3.3,7.6,1.2c3-2.3,1.8-5.1,0-7.4c-3.2-4.1-4.5-8.8-5.3-13.8c-1.4-8.8-1-17.4,1.9-26.1c4.6-13.9,5.5-28.8,9.9-42.7
		c12.5-39.3,30-76.6,48-113.6c0.8-1.6,1.4-2.7,3.5-3c13.7-1.9,27.3-4.1,41.2-1.9c14.5,2.3,27.4,7.1,35.2,20.7
		c0.9,1.5,1.8,2.8,3.9,2.4c1.9-0.4,2.8-1.8,3.3-3.4C800.4,30.6,800.2,27.3,798.3,24.3z M666.3,102c-0.7-27.3-2.7-54-25.4-74.6
		c19.5-0.1,37.8-4.4,57.1-8C685.9,46.8,675.7,74.2,666.3,102z"/>
	<path class="st1" d="M1126.5,151.1c-6.6,1.5-13.1,1.4-19.5-0.9c-7.5-2.7-13.4-7.1-16.1-14.9c-0.4-1.3-1.1-2.5,1.3-2.6
		c9.1-0.2,16.8-5.1,25.1-7.9c3.6-1.2,7.1-2.5,11-2.6c1.2-0.5,2.5-0.9,3.8-0.7c2.6,0.4-1.3-1.3,0.4-1.1c4.3-1.3,8.6-1.9,13.1-2
		c2.6,0.7,5.2,0.6,7.8,0c5.3,0.3,10.4,1.7,15.5,3.1c3.4,0.9,4.4,2.9,1.9,5.7c-11,12.6-24.7,20.5-41.2,23.1
		C1128.5,150.1,1127.4,150.2,1126.5,151.1z"/>
	<path class="st1" d="M1088.5,115.9c-0.5-16.4,4.5-30.6,17.3-41.5c3.6-3.1,7.9-4.8,12.1-6.7c3-1.4,3.6,0.6,3.6,3.3
		c0.2,11.4-3.9,21.3-10.5,30.4c-4.4,6.1-10.2,11.4-11.7,19.3c-0.3,1.5-0.9,3-0.7,4.3c0.5,3.6-1.5,5.1-4.4,5.1
		c-3-0.1-5.5-1.7-5.6-5.1C1088.4,121.8,1088.5,118.8,1088.5,115.9z"/>
	<path class="st2" d="M1061.7,114.7c2.3-1.2,4.2-1.9,5.7-3c9.2-6.7,17.5,1,18.1,10.5c0.3,4.8,1.1,9.5,2.9,14
		c2.6,6.6,6.8,11.7,13.3,14.8c1.2,0.6,2.4,1.2,3.3,2.1c1.2,1.1,2.4,2.8,1.9,4.3c-0.6,1.7-2.6,0.8-4,0.9c-19,0.3-28.6-8.3-32.3-29.4
		C1069.7,122.8,1067.4,118.2,1061.7,114.7z"/>
	<path class="st2" d="M1145.5,188.1c-13-5.7-23-14-30.9-25C1124.2,159.9,1141.7,173.8,1145.5,188.1z"/>
	<path class="st3" d="M1132.5,120.3c0.2,0.7,2.6,1.7-0.3,1.9c-1.3,0.1-2.6,0-3.9,0C1129.5,121,1130.9,120.4,1132.5,120.3z"/>
	<path class="st4" d="M1153.4,118.3c-2.6,1.4-5.2,1.4-7.8,0C1148.2,118.3,1150.8,118.3,1153.4,118.3z"/>
	<path class="st5" d="M1126.5,151.1c0.5-2.3,1.5-2.4,3.1-0.8C1128.8,151.4,1127.6,151.2,1126.5,151.1z"/>
	<path class="st0" d="M815.1,249c-6.2-1.6-12.6-0.7-18.9-1.1c-3.2-0.2-4.4,0.7-4.2,4.1c0.3,6.1,0.1,12.3,0.1,18.5
		c0,6.5,0.1,13,0,19.5c-0.1,2.5,0.6,3.6,3.3,3.5c5.3-0.2,10.7,0,16-0.3c10.8-0.6,18.2-8.2,19.2-19.3
		C831.6,261.5,825.5,251.7,815.1,249z M825.6,272.8c-0.5,9-6,14.6-15,15.5c-13.8,1.4-13.8,1.4-13.8-12c0-2,0-4,0-6
		c0-5,0.1-10,0-14.9c-0.1-2.4,0.8-3.3,3.2-3c4.1,0.4,8.3,0.4,12.4,1.1C821.1,255.1,826.2,262.7,825.6,272.8z"/>
	<path class="st0" d="M278.8,289.2c0.1-13,0.1-26,0-39c0-1.5,0.8-3.5-2-3.6c-2.8-0.1-2.2,1.8-2.3,3.4c0,4.7,0,9.4,0,14.6
		c-9.5-7.6-18.9-7.6-25.7-0.7c-6.4,6.6-6.7,17.1-0.8,24.1c6.5,7.7,15.8,8.1,26.1,0.8c0.9,1.8-0.9,4.7,2.8,4.4
		C280.2,293,278.8,290.6,278.8,289.2z M261.8,290c-7,0.1-13.2-6.2-13.2-13.5c0-7.4,6-13.4,13.3-13.3c7.4,0.1,12.9,6,12.8,13.7
		C274.6,284.1,268.9,289.9,261.8,290z"/>
	<path class="st0" d="M401.2,262.2c0-1.6-0.4-2.5-2.2-2.6c-2.2-0.2-2.5,1-2.4,2.7c0.1,0.6-0.1,1.3-0.1,2.4
		c-8.7-7.5-17.8-7.9-24.7-1.6c-6.9,6.3-7.9,16.5-2.3,24c2.7,3.6,6.3,6,10.7,6.8c6.3,1.2,11.6-1.1,16-5.3c1.4,1.6-1.2,4.6,2.5,4.7
		c2,0.1,2.5-0.9,2.5-2.7C401.1,281.1,401.1,271.7,401.2,262.2z M383.5,289.9c-6.9-0.2-12.8-6.3-12.9-13.4
		c-0.1-7.5,5.8-13.5,13.1-13.5c7.4,0,13.1,5.9,13,13.5C396.8,284.2,390.8,290.1,383.5,289.9z"/>
	<path class="st0" d="M726.4,276.9c4,0.2,8,0,12,0c4,0,8-0.2,12,0.1c3.2,0.2,3.6-1.2,3.2-3.8c-1.2-8-7.5-13.7-16-14.5
		c-8.4-0.7-15.8,4.5-17.9,12.7c-2.3,8.8,1.8,18.2,9.4,21.4c8,3.4,17.7,0.7,22.1-6.2c0.6-1,2.5-2.2,0.1-3.6c-1.5-0.9-2.6-1.2-3.6,0.7
		c-0.5,0.9-1.1,1.7-1.9,2.3c-3.7,3.3-7.9,4.8-12.8,3.4c-4.8-1.3-7.5-4.6-8.8-9.2C723.3,277.9,723.6,276.8,726.4,276.9z M725.2,270
		c2-4.6,7.1-7.5,12.6-6.9c5.5,0.6,9.1,3.9,10.4,9.8c-7.1,0-14.2-0.1-21.2,0C724.2,273,724.3,272,725.2,270z"/>
	<path class="st0" d="M883.4,276.9c3.6,0.3,7.3,0.1,11,0.1c4,0,8-0.2,12,0.1c3.1,0.2,3.7-1.1,3.2-3.8c-1.3-6.8-5-11.8-11.6-13.7
		c-6.8-2-13.2-1-18.3,4.6c-6.8,7.5-6,19.9,1.7,26.4c7.3,6.1,19.8,4.5,25.3-3.3c0.7-1,3.1-2.2,0.8-4c-1.9-1.5-3.2-0.9-4.3,1.1
		c-0.3,0.6-0.8,1.1-1.2,1.6c-6.7,7.1-18.4,4.6-21.5-4.6C879.4,278.3,879.4,276.6,883.4,276.9z M881.3,269.9
		c2.2-4.5,6.9-7.2,12.2-6.7c5.4,0.5,9,3.5,10.9,9.8c-7.3,0-14.2-0.1-21.2,0C880.5,273.1,880.2,272.2,881.3,269.9z"/>
	<path class="st0" d="M693.6,261.8c0-1.3-0.2-2.3-1.8-2.2c-1.2,0.1-2.4-0.1-2.6,1.5c-0.1,0.9,0.3,2-0.7,2.7
		c-9.3-7.1-18.5-6.9-25.3,0.6c-6,6.6-6.2,16.8-0.3,23.7c6.4,7.5,15.8,8,25.9,0.8c0.6,2-0.5,4.7,2.9,4.4c1.5-0.1,1.9-0.7,1.9-2.1
		C693.6,281.4,693.6,271.6,693.6,261.8z M676.3,290c-7.1,0-13.1-6.2-13.1-13.6c0.1-7.2,5.8-13.1,12.9-13.2
		c7.4-0.1,13.2,5.7,13.2,13.3C689.5,283.8,683.6,290,676.3,290z"/>
	<path class="st0" d="M631.6,262.1c0-1.1,0.2-2.4-1.6-2.4c-1.5,0-2.7,0.1-2.5,2.1c0.1,0.8,0,1.7,0,3c-9.8-7.6-18.7-7.8-25.5-1
		c-6.6,6.6-7.1,16.9-1.3,24c2.7,3.4,6.2,5.5,10.5,6.2c6.1,1,11.3-1.2,15.7-5.3c1.6,1.4-0.9,4.6,2.6,4.6c1.8,0,2.2-0.7,2.2-2.3
		C631.6,281.4,631.6,271.7,631.6,262.1z M614.6,290c-7.1,0.1-13.1-6-13.2-13.4c0-7.6,5.7-13.4,13.1-13.4c7.1,0.1,12.9,5.9,13,13.1
		C627.7,283.6,621.8,289.8,614.6,290z"/>
	<path class="st0" d="M590.1,259c-0.5-6.1-4.6-10.3-11-10.8c-5-0.3-10-0.1-15-0.3c-2.5-0.1-2.6,1.2-2.6,3c0.1,6.5,0,13,0,19.5
		c0,6.5,0,13,0,19.5c0,1.4-0.9,3.4,2,3.5c2.7,0.1,2.8-1.4,2.8-3.4c-0.1-4.7,0.1-9.3-0.1-14c-0.2-2.9,0.5-4.2,3.7-3.9
		c3.5,0.3,7,0.4,10.4-0.5C587.2,269.9,590.6,265.5,590.1,259z M571.9,267.8c-7.6,0.6-5-4.3-5.5-7.9c0.9-3-2.5-8.2,5-7.7
		c9.7,0.6,13.7,2.4,13.7,7.9C585.1,265.5,581.3,267.1,571.9,267.8z"/>
	<path class="st0" d="M480.1,258.6c-9.9-0.3-18,7.8-18,17.9c0,9.8,7.6,17.4,17.3,17.5c10,0.1,17.8-7.4,18.1-17.3
		C497.7,267.1,489.9,258.9,480.1,258.6z M479.8,289.9c-7.1,0-13.1-6.2-13-13.6c0.1-7,6.1-13.2,12.9-13.2c7.1,0,13,6.2,12.9,13.6
		C492.5,284,486.8,289.9,479.8,289.9z"/>
	<path class="st0" d="M946,258.6c-9.9,0.1-17.4,7.9-17.4,17.9c0,10.1,7.6,17.6,17.7,17.6c10.1-0.1,17.4-7.6,17.3-17.8
		C963.5,266.2,955.8,258.5,946,258.6z M946,289.9c-6.9-0.1-12.8-6.1-12.9-13.2c-0.1-7.2,6-13.6,13-13.6c6.8,0,12.8,6.1,12.9,13.2
		C959.1,283.7,953.1,290,946,289.9z"/>
	<path class="st6" d="M1147.3,121c-1.9,0-3.8,0-5.6,0c0-0.2,0-0.3,0-0.5c1.9,0,3.8,0,5.7,0C1147.3,120.7,1147.3,120.8,1147.3,121z"
		/>
</g>
</svg>
