<?xml version="1.0" encoding="utf-8"?>
<!-- Generator: Adobe Illustrator 25.4.1, SVG Export Plug-In . SVG Version: 6.00 Build 0)  -->
<svg version="1.1" id="Capa_1" xmlns="http://www.w3.org/2000/svg" xmlns:xlink="http://www.w3.org/1999/xlink" x="0px" y="0px"
	 viewBox="0 0 135.5 129.4" style="enable-background:new 0 0 135.5 129.4;" xml:space="preserve">
<style type="text/css">
	.st0{fill:#1E1C21;}
	.st1{fill:#D1B3D2;}
	.st2{fill:#6AAEAF;}
	.st3{fill:#C0A8C1;}
	.st4{fill:#BEA9BF;}
	.st5{fill:#C4ACC5;}
	.st6{fill:#B99FBA;}
</style>
<g>
	<path class="st0" d="M0,49.1c6.8-0.5,12-0.8,17.3-1.3c2.3-0.2,4.8-0.6,6.7-1.7c7-3.9,13.6-5.3,20.4,1.9c1.2-9.1,2.8-17,6.5-24.3
		C57.3,11.3,67.2,3.8,80.5,0.3c3.4-0.9,3.6,0.4,3.7,3c0.4,14.7-3.6,27.9-13.4,39.1c-4.2,4.8-8,9.8-9.1,16.3c-0.3,1.6-1.4,3.5,0,4.7
		c1.3,1.1,2.8-0.4,4.1-0.9c11.4-4.8,22.9-8.9,35.3-10.2c10.3-1.1,20.2,0.2,29.9,3.7c5,1.8,5.6,3.2,2.6,7.6c-8.2,12.4-20.6,19-34,24
		c-9.6,3.6-19.6,4.8-29.9,3.5c0.1,3.7,2.9,4,5.3,4.4C94,99,105,110.8,109.9,129.2c-2.8,0.6-5-0.9-7.1-1.9c-12.4-5.9-23-14-30.8-25.4
		c-1.9-2.8-4.2-4.1-7.5-3.8c-1.2,0.1-2.3-0.1-3.5,0c-16.7,2.1-23.5-6.2-29-17.5c-2.4-4.8-4.2-9.9-4.8-15.1
		c-0.8-7.2-5.2-10.7-11.4-13C11.1,51,6.1,50.7,0,49.1z"/>
	<path class="st1" d="M86,87.6c-6.6,1.5-13.1,1.4-19.5-0.9c-7.5-2.7-13.4-7.1-16.1-14.9c-0.4-1.3-1.1-2.5,1.3-2.6
		c9.1-0.2,16.8-5.1,25.1-7.9c3.6-1.2,7.1-2.5,11-2.6c1.2-0.5,2.5-0.9,3.8-0.7c2.6,0.4-1.3-1.3,0.4-1.1c4.3-1.3,8.6-1.9,13.1-2
		c2.6,0.7,5.2,0.6,7.8,0c5.3,0.3,10.4,1.7,15.5,3.1c3.4,0.9,4.4,2.9,1.9,5.7c-11,12.6-24.7,20.5-41.2,23.1
		C87.9,86.7,86.9,86.7,86,87.6z"/>
	<path class="st1" d="M48,52.4C47.5,36,52.5,21.8,65.3,10.9c3.6-3.1,7.9-4.8,12.1-6.7c3-1.4,3.6,0.6,3.6,3.3
		c0.2,11.4-3.9,21.3-10.5,30.4c-4.4,6.1-10.2,11.4-11.7,19.3c-0.3,1.5-0.9,3-0.7,4.3c0.5,3.6-1.5,5.1-4.4,5.1
		c-3-0.1-5.5-1.7-5.6-5.1C47.9,58.4,48,55.4,48,52.4z"/>
	<path class="st2" d="M21.1,51.2c2.3-1.2,4.2-1.9,5.7-3c9.2-6.7,17.5,1,18.1,10.5c0.3,4.8,1.1,9.5,2.9,14
		c2.6,6.6,6.8,11.7,13.3,14.8c1.2,0.6,2.4,1.2,3.3,2.1c1.2,1.1,2.4,2.8,1.9,4.3c-0.6,1.7-2.6,0.8-4,0.9c-19,0.3-28.6-8.3-32.3-29.4
		C29.2,59.4,26.8,54.7,21.1,51.2z"/>
	<path class="st2" d="M105,124.7c-13-5.7-23-14-30.9-25C83.7,96.5,101.1,110.3,105,124.7z"/>
	<path class="st3" d="M92,56.9c0.2,0.7,2.6,1.7-0.3,1.9c-1.3,0.1-2.6,0-3.9,0C89,57.5,90.4,56.9,92,56.9z"/>
	<path class="st4" d="M112.9,54.8c-2.6,1.4-5.2,1.4-7.8,0C107.7,54.8,110.3,54.8,112.9,54.8z"/>
	<path class="st5" d="M86,87.6c0.5-2.3,1.5-2.4,3.1-0.8C88.3,87.9,87.1,87.7,86,87.6z"/>
	<path class="st6" d="M106.8,57.5c-1.9,0-3.8,0-5.6,0c0-0.2,0-0.3,0-0.5c1.9,0,3.8,0,5.7,0C106.8,57.2,106.8,57.4,106.8,57.5z"/>
</g>
</svg>
